/* XPM */
static char * collect_02_xpm[] = {
"30 30 23 1",
" 	c #C0D470",
".	c #BFD470",
"+	c #B09643",
"@	c #957A4B",
"#	c #BCD16E",
"$	c #B2CB69",
"%	c #B9D06D",
"&	c #F4F4A0",
"*	c #EAE178",
"=	c #BED36F",
"-	c #D4C169",
";	c #795E53",
">	c #C1D572",
",	c #C2D573",
"'	c #DCB98A",
")	c #C0D46F",
"!	c #D0DE89",
"~	c #C7D87B",
"{	c #CEDD86",
"]	c #D6E292",
"^	c #C6D87A",
"/	c #CADA80",
"(	c #D5E191",
"                        ..    ",
"         ..             ..    ",
"         ..++++@@    ##$%%    ",
"         $$++++@@   ++@@      ",
"        .@+&&&&**@++++@@      ",
"  = ++++@@+&&&&**@++&&**@     ",
"  = ++++@*@--**--+&&**--@     ",
"  #+&&&&*-@**--**@--**--@     ",
"   @--**--@**--**@----**@     ",
"   @--**-**;--**--;**--**@    ",
"    @**--**;--**--;****--@    ",
"    @**--+++@@--+++@@**--@    ",
"    @--**+++@@--+++@@@@**;    ",
"    @--**&&&**++&&&**@@;;     ",
"    ;**++--*--@@--*--@@;;     ",
"     ;;@@--*--@@--*--@@;;>>,  ",
"     ;;@@**-**@@**-**@@;;>>,  ",
"     ;;@@**-**@@**-**@@;;'''))",
"     ;;@@--*--@@--*--@@;;'''  ",
"  ''';;@@--*--@@--*--@@'''>   ",
"  ''';;@@**-**@@**-**@        ",
"     '''@@@@*@@  @@*@@        ",
"  >>!~~{  @@*@@  @@*@@''      ",
"    ]^^/  @@*@@''@@*@@''      ",
"    ]^^/''@@*@@''@@*@@''''    ",
"    (,, ''@@-@@''@@-@@''''    ",
"    ) ''''@@-@@''@@-@'        ",
"    ) '''''''''''''''         ",
"                              ",
"                              "};
