/* XPM */
static char * collect_xpm[] = {
"30 30 8 1",
" 	c None",
".	c #B09643",
"+	c #957A4B",
"@	c #F4F4A0",
"#	c #EAE178",
"$	c #D4C169",
"%	c #795E53",
"&	c #DCB98A",
"            ....++            ",
"            ....++            ",
"     ....++.@@@@##+....++     ",
"     ....++.@@@@##+....++     ",
"    .@@@@##+$$##$$.@@@@##+    ",
"    +$$##$$+##$$##+$$##$$+    ",
"    +$$##$$+##$$##+$$##$$+    ",
"    +##$$##%$$##$$%##$$##+    ",
"    +##$$##%$$##$$%##$$##+    ",
"    +$$##...++$$...++##$$+    ",
"    +$$##...++$$...++##$$+    ",
"    %##..@@@##..@@@##++##%    ",
"     %%++$$#$$++$$#$$++%%     ",
"     %%++$$#$$++$$#$$++%%     ",
"     %%++##$##++##$##++%%     ",
"     %%++##$##++##$##++%%     ",
"  &&&%%++$$#$$++$$#$$++%%&&&  ",
"  &&&%%++$$#$$++$$#$$++%%&&&  ",
"    &&&++##$##++##$##++&&&    ",
"         ++#++  ++#++         ",
"         ++#++  ++#++         ",
"       &&++#++&&++#++&&       ",
"       &&++#++&&++#++&&       ",
"     &&&&++$++&&++$++&&&&     ",
"     &&&&++$++&&++$++&&&&     ",
"         &&&&&&&&&&&&         ",
"                              ",
"                              ",
"                              ",
"                              "};
