/* XPM */
static char * enemy_02_xpm[] = {
"30 30 37 1",
" 	c #C0D470",
".	c #BFD470",
"+	c #B2CB69",
"@	c #BCD16E",
"#	c #B9D06D",
"$	c #BED36F",
"%	c #BFD370",
"&	c #B4CC6A",
"*	c #D1732E",
"=	c #B0CA69",
"-	c #B1CA69",
";	c #BED26F",
">	c #AFC968",
",	c #B8CF6C",
"'	c #BCD26E",
")	c #AF4828",
"!	c #B5CD6B",
"~	c #AEC868",
"{	c #FFED56",
"]	c #C1D572",
"^	c #C2D573",
"/	c #ECB51F",
"(	c #BFD46F",
"_	c #D6E293",
":	c #D3E08E",
"<	c #C0D46F",
"[	c #C1D571",
"}	c #DAE597",
"|	c #D0DE89",
"1	c #C7D87B",
"2	c #CEDD86",
"3	c #D6E292",
"4	c #C6D87A",
"5	c #CADA80",
"6	c #D5E191",
"7	c #C8D97D",
"8	c #CBDB82",
"                              ",
"          ..             ..   ",
"          ..             ..   ",
"         .++.         @@+##   ",
"   $     %&&            %     ",
"   $     %&&   *        %     ",
"   @==                        ",
"    -- ;;>                    ",
"    -- ;;>                    ",
"       ,,'  ))  %%!~~         ",
"           )))    #           ",
"            )     #           ",
"              **              ",
"             ***              ",
"           * *{**             ",
"          **  {**)            ",
"          **  **))       ]]^  ",
"         )**))*))//      ]]^  ",
"      (  ))*)*//)//*    ]__:<<",
"    [[}<<)**)////***     ]]   ",
"    [[}<*//*)////**)     ]]   ",
" ]]|112 *///*//***))          ",
"   3445 *//**{{{**))          ",
"   3445  ))*{{{{/**)          ",
"   6^^   ))/{{{{{***78        ",
"   <     **{{{{{{//*)(        ",
"   <    )*{{{{{{{//**(        ",
"          ]]                  ",
"                              ",
"                              "};
