/* XPM */
static char * enemy_01_xpm[] = {
"30 30 35 1",
" 	c #C0D470",
".	c #BFD470",
"+	c #B2CB69",
"@	c #BCD16E",
"#	c #B9D06D",
"$	c #BED36F",
"%	c #BFD370",
"&	c #B4CC6A",
"*	c #B0CA69",
"=	c #B1CA69",
"-	c #BED26F",
";	c #AFC968",
">	c #D1732E",
",	c #B8CF6C",
"'	c #BCD26E",
")	c #AF4828",
"!	c #AEC868",
"~	c #ECB51F",
"{	c #C1D572",
"]	c #C2D573",
"^	c #BFD46F",
"/	c #D6E293",
"(	c #D3E08E",
"_	c #C0D46F",
":	c #C1D571",
"<	c #DAE597",
"[	c #FFED56",
"}	c #D0DE89",
"|	c #C7D87B",
"1	c #CEDD86",
"2	c #D6E292",
"3	c #C6D87A",
"4	c #CADA80",
"5	c #CBDB82",
"6	c #D5E191",
"                              ",
"          ..             ..   ",
"          ..             ..   ",
"         .++.         @@+##   ",
"   $     %&&            %     ",
"   $     %&&            %     ",
"   @**                        ",
"    == --;                    ",
"    == --;   >   >            ",
"       ,,'      %>)!!         ",
"                  )           ",
"           ))  >  #           ",
"          ))) ~~~             ",
"          )))~~~~>            ",
"           ) ~~~~>            ",
"             >~~)             ",
"              )))        {{]  ",
"              >>) >>>    {{]  ",
"      ^   >>>)>>>)>>>   {//(__",
"    ::<__>>>>>>>>>>>     {{   ",
"    ::<__>>[[[>>~~>>     {{   ",
" {{}||1  )[[[[~~~~~>)         ",
"   2334  )[[[~[[~~~>)         ",
"   2334  5>[~~[[~~>>>>        ",
"   6]]   |>~~[[[[[~~>>        ",
"   _     )>>[[[[[[~~>)        ",
"   _    ))>~[[[[[[[>>^        ",
"          {{                  ",
"                              ",
"                              "};
