/* XPM */
static char * enemy_03_xpm[] = {
"30 30 36 1",
" 	c #C0D470",
".	c #BFD470",
"+	c #B2CB69",
"@	c #BCD16E",
"#	c #B9D06D",
"$	c #BED36F",
"%	c #BFD370",
"&	c #B4CC6A",
"*	c #AF4828",
"=	c #B0CA69",
"-	c #B1CA69",
";	c #BED26F",
">	c #AFC968",
",	c #D1732E",
"'	c #B8CF6C",
")	c #BCD26E",
"!	c #B5CD6B",
"~	c #AEC868",
"{	c #ECB51F",
"]	c #C1D572",
"^	c #C2D573",
"/	c #BFD46F",
"(	c #D6E293",
"_	c #D3E08E",
":	c #C0D46F",
"<	c #C1D571",
"[	c #DAE597",
"}	c #FFED56",
"|	c #D0DE89",
"1	c #C7D87B",
"2	c #CEDD86",
"3	c #D6E292",
"4	c #C6D87A",
"5	c #CADA80",
"6	c #D5E191",
"7	c #CBDB82",
"                              ",
"          ..             ..   ",
"          ..             ..   ",
"         .++.         @@+##   ",
"   $     %&&    *       %     ",
"   $     %&&            %     ",
"   @==                        ",
"    -- ;;> ** *               ",
"    -- ;;> * ,,               ",
"       '')   *, %%!~~         ",
"             *    #           ",
"                  #           ",
"                              ",
"                   ,          ",
"           ***     ,          ",
"          *****               ",
"         ,{{,*,,,        ]]^  ",
"         ,{{{*,{{,       ]]^  ",
"      /  *{{{,{{{,*     ]((_::",
"    <<[::*,}}}{}}**      ]]   ",
"    <<[::*,}}}}}}*{,*    ]]   ",
" ]]|112 ,,,{}}{}{*{{,         ",
"   3445 ,,,,{{{{{,,{,         ",
"   3445 ,,}}}{{{{,,,,         ",
"   6^^  ,,}}}}}{{}},,7        ",
"   :    ,,}}}}}}}}}**/        ",
"   :    *,{}}}}}}}{**/        ",
"          ]]                  ",
"                              ",
"                              "};
