/* XPM */
static char * exit_close_01_xpm[] = {
"30 30 17 1",
" 	c #C0D470",
".	c #BFD470",
"+	c #C49A6C",
"@	c #754C60",
"#	c #B2CB69",
"$	c #DCB98A",
"%	c #90625D",
"&	c #AA7959",
"*	c #E8CFA6",
"=	c #C2D573",
"-	c #D3E08E",
";	c #C0D46F",
">	c #C1D572",
",	c #D6E293",
"'	c #BFD36E",
")	c #D2DF8C",
"!	c #BFD46F",
"                              ",
"          ..             ..   ",
"          ..             ..   ",
"   +++@  .##.         @@+++   ",
"   +++@  @@@@@@@@@@@@ @@+++   ",
"   +++@  @@@@@@@@@@@@ @@+++   ",
"   +++@@@++++++++++++@@@+++   ",
"   $$$@++%%%%%%%%%%%%+@@$$$   ",
"   $$$@++%%%%%%%%%%%%+@@$$$   ",
"   &&&@%%%%%%%%%%%%%%%@@&&&   ",
"   &&&@%%%&&%%%%%%&%%%@@&&&   ",
"   &&&@%%%&&%%%%%%&%%%@@&&&   ",
"   %%%@%%%&&%%%%%%&%%%@@%%%   ",
"   &&&@%%%&&%%%%%%&%%%@@&&&   ",
"   &&&@%%%&&%%%%%%&%%%@@&&&   ",
"   &&&@%%%&&%%%%%%&%%%@@&&&   ",
"   &&&@%%%&&%%%%%%***%@@&&&=  ",
"   &&&@%%%&&%%%%%%***%@@&&&=  ",
"   %%%@%%%&&%%%%%%&%%%@@%%%-;;",
"   &&&@%%%&&%%%%%%&%%%@@&&&   ",
"   &&&@%%%&&%%%%%%&%%%@@&&&   ",
" >>&&&@%%%&&%%%%%%&%%%@@&&&   ",
"   &&&@%%%%%%%%%%%%%%%@@&&&   ",
"   &&&@%%%%%%%%%%%%%%%@@&&&   ",
"   @@@@@@@@@@@@@@@@@@@@@@@@   ",
"   @@@ @@@,,      '))!  @@@   ",
"   @@@ @@@,,      '))!  @@@   ",
"          >>                  ",
"                              ",
"                              "};
