/* XPM */
static char * exit_open_01_xpm[] = {
"30 30 25 1",
" 	c #C0D470",
".	c #BFD470",
"+	c #754C60",
"@	c #B2CB69",
"#	c #BCD16E",
"$	c #C49A6C",
"%	c #BFD370",
"&	c #90625D",
"*	c #DCB98A",
"=	c #AA7959",
"-	c #B5CD6B",
";	c #AEC868",
">	c #B9D06D",
",	c #E8CFA6",
"'	c #C2D573",
")	c #D3E08E",
"!	c #C0D46F",
"~	c #C1D572",
"{	c #D2E08C",
"]	c #C8D97D",
"^	c #CBDB82",
"/	c #D6E293",
"(	c #BFD36E",
"_	c #D2DF8C",
":	c #BFD46F",
"                              ",
"          ..             ..   ",
"          ..             ..   ",
"   +++   .@@.+++      ##+++   ",
"   $$$+  %+++$$$++    ++$$$   ",
"   $$$+  %+++$$$++    ++$$$   ",
"   $$$++++$$$&&&++    ++$$$   ",
"   $$$+$$$&&&&&&++    ++$$$   ",
"   $$$+$$$&&&&&&++    ++$$$   ",
"   ***+&&&&&&==&++-;; ++***   ",
"   ===+&&&&&&==&++>   ++===   ",
"   ===+&&&&&&==&++>   ++===   ",
"   ===+&&=&&&==&++    ++===   ",
"   &&&+&&=&&&==,++    ++&&&   ",
"   &&&+&&=&&&==,++    ++&&&   ",
"   ===+&&=&&&,,&++    ++===   ",
"   ===+&&=&&&==&++    ++==='  ",
"   ===+&&=&&&==&++    ++==='  ",
"   ===+&&=&&&==&++    ++===)!!",
"   &&&+&&=&&&&&&++    ++&&&   ",
"   &&&+&&=&&&&&&++    ++&&&   ",
" ~~===+&&=&&&&&&++    ++===   ",
"   ===+&&&&&&+++  !   ++===   ",
"   ===+&&&&&&+++  !   ++===   ",
"   ===+&&&+++     {]]^++===   ",
"   +++++++//      (__:+++++   ",
"   +++++++//      (__:+++++   ",
"          ~~                  ",
"                              ",
"                              "};
