/* XPM */
static char * exit_02_xpm[] = {
"30 30 7 1",
" 	c None",
".	c #754C60",
"+	c #C49A6C",
"@	c #90625D",
"#	c #DCB98A",
"$	c #AA7959",
"%	c #E8CFA6",
"                              ",
"                              ",
"                              ",
"   ...       ...        ...   ",
"   +++.   ...+++..    ..+++   ",
"   +++.   ...+++..    ..+++   ",
"   +++....+++@@@..    ..+++   ",
"   +++.+++@@@@@@..    ..+++   ",
"   +++.+++@@@@@@..    ..+++   ",
"   ###.@@@@@@$$@..    ..###   ",
"   $$$.@@@@@@$$@..    ..$$$   ",
"   $$$.@@@@@@$$@..    ..$$$   ",
"   $$$.@@$@@@$$@..    ..$$$   ",
"   @@@.@@$@@@$$%..    ..@@@   ",
"   @@@.@@$@@@$$%..    ..@@@   ",
"   $$$.@@$@@@%%@..    ..$$$   ",
"   $$$.@@$@@@$$@..    ..$$$   ",
"   $$$.@@$@@@$$@..    ..$$$   ",
"   $$$.@@$@@@$$@..    ..$$$   ",
"   @@@.@@$@@@@@@..    ..@@@   ",
"   @@@.@@$@@@@@@..    ..@@@   ",
"   $$$.@@$@@@@@@..    ..$$$   ",
"   $$$.@@@@@@...      ..$$$   ",
"   $$$.@@@@@@...      ..$$$   ",
"   $$$.@@@...         ..$$$   ",
"   .......            .....   ",
"   .......            .....   ",
"                              ",
"                              ",
"                              "};
