/* XPM */
static char * exit_01_xpm[] = {
"30 30 7 1",
" 	c None",
".	c #C49A6C",
"+	c #754C60",
"@	c #DCB98A",
"#	c #90625D",
"$	c #AA7959",
"%	c #E8CFA6",
"                              ",
"                              ",
"                              ",
"   ...+               ++...   ",
"   ...+  ++++++++++++ ++...   ",
"   ...+  ++++++++++++ ++...   ",
"   ...+++............+++...   ",
"   @@@+..############.++@@@   ",
"   @@@+..############.++@@@   ",
"   $$$+###############++$$$   ",
"   $$$+###$$######$###++$$$   ",
"   $$$+###$$######$###++$$$   ",
"   ###+###$$######$###++###   ",
"   $$$+###$$######$###++$$$   ",
"   $$$+###$$######$###++$$$   ",
"   $$$+###$$######$###++$$$   ",
"   $$$+###$$######%%%#++$$$   ",
"   $$$+###$$######%%%#++$$$   ",
"   ###+###$$######$###++###   ",
"   $$$+###$$######$###++$$$   ",
"   $$$+###$$######$###++$$$   ",
"   $$$+###$$######$###++$$$   ",
"   $$$+###############++$$$   ",
"   $$$+###############++$$$   ",
"   ++++++++++++++++++++++++   ",
"   +++ +++              +++   ",
"   +++ +++              +++   ",
"                              ",
"                              ",
"                              "};
