/* XPM */
static char * floor_xpm[] = {
"30 30 36 1",
" 	c #C0D470",
".	c #BFD470",
"+	c #B2CB69",
"@	c #BCD16E",
"#	c #B9D06D",
"$	c #BED36F",
"%	c #BFD370",
"&	c #B4CC6A",
"*	c #B0CA69",
"=	c #B1CA69",
"-	c #BED26F",
";	c #AFC968",
">	c #B8CF6C",
",	c #BCD26E",
"'	c #B5CD6B",
")	c #AEC868",
"!	c #C1D572",
"~	c #C2D573",
"{	c #BFD46F",
"]	c #D6E293",
"^	c #D3E08E",
"/	c #C0D46F",
"(	c #C1D571",
"_	c #DAE597",
":	c #D0DE89",
"<	c #C7D87B",
"[	c #CEDD86",
"}	c #D6E292",
"|	c #C6D87A",
"1	c #CADA80",
"2	c #CBDB82",
"3	c #D5E191",
"4	c #D2E08C",
"5	c #C8D97D",
"6	c #BFD36E",
"7	c #D2DF8C",
"                              ",
"          ..             ..   ",
"          ..             ..   ",
"         .++.         @@+##   ",
"   $     %&&            %     ",
"   $     %&&            %     ",
"   @**                        ",
"    == --;                    ",
"    == --;                    ",
"       >>,      %%'))         ",
"                  #           ",
"                  #           ",
"                              ",
"                              ",
"                              ",
"                              ",
"                         !!~  ",
"                         !!~  ",
"      {                 !]]^//",
"    ((_//                !!   ",
"    ((_//                !!   ",
" !!:<<[                       ",
"   }||1  2{{      /           ",
"   }||1  2{{      /           ",
"   3~~   <^^      4552        ",
"   /     ~]]      677{        ",
"   /     ~]]      677{        ",
"          !!                  ",
"                              ",
"                              "};
