/* XPM */
static char * player_right_xpm[] = {
"30 30 76 1",
" 	c #C0D470",
".	c #BED36F",
"+	c #BDD36F",
"@	c #BFD470",
"#	c #BFD36F",
"$	c #BED370",
"%	c #BAD06D",
"&	c #B7CE6C",
"*	c #5C4E92",
"=	c #BBD16E",
"-	c #B7CE6B",
";	c #B7CF6C",
">	c #BFD370",
",	c #F3F2C0",
"'	c #BDD26E",
")	c #B9D06D",
"!	c #BDD26F",
"~	c #B8CF6C",
"{	c #B6CE6C",
"]	c #BED26F",
"^	c #E8B5AC",
"/	c #B3CC6A",
"(	c #BBD06D",
"_	c #BCD26E",
":	c #F3D8C5",
"<	c #C1D471",
"[	c #C0D471",
"}	c #C3D675",
"|	c #C5D779",
"1	c #C3D674",
"2	c #766DAA",
"3	c #C1D572",
"4	c #CADA80",
"5	c #D1DF8C",
"6	c #D0DE89",
"7	c #C8D97D",
"8	c #C0D46F",
"9	c #CBDB81",
"0	c #C7D97B",
"a	c #DDD5DE",
"b	c #EAE178",
"c	c #C1D571",
"d	c #C7D87B",
"e	c #CCDC84",
"f	c #CADB81",
"g	c #C5D778",
"h	c #C2D573",
"i	c #C7D87A",
"j	c #D3E08D",
"k	c #CDDC83",
"l	c #C3D676",
"m	c #CADA7F",
"n	c #CEDD86",
"o	c #C9DA7E",
"p	c #C4D777",
"q	c #CDDC85",
"r	c #C6D87A",
"s	c #C4D778",
"t	c #D2DF8C",
"u	c #CEDD87",
"v	c #C7D87C",
"w	c #C4D677",
"x	c #C2D574",
"y	c #D1DE8B",
"z	c #C2D572",
"A	c #CCDB83",
"B	c #CCDC82",
"C	c #C7D97C",
"D	c #C9D97E",
"E	c #C4D676",
"F	c #CEDC86",
"G	c #C8D97C",
"H	c #CFDD88",
"I	c #C8D87C",
"J	c #CBDB82",
"K	c #BFD46F",
"                              ",
"                              ",
"          .+@          #..$   ",
"         @%&****      #=-;=>  ",
"   @     >**,,,,**    >')%!@  ",
"   .!.@  >**,,,,**      >>    ",
"  @'~{]  *,,^^^,***           ",
"   .&/! ]*,,^^^,,,,**         ",
"    %&]#(*,,^^^,,,,**@        ",
"    #.@')*,,,,,,,,,**!        ",
"       ._*,,,,,,,,,**.        ",
"         *,,,,,,,,,**         ",
"       ***,,,,,,,,,***        ",
"         *,,,,,,**,,,*        ",
"         *,,,,,,**,,,*        ",
"       ***,,,,,,,,,,,*        ",
"         *,,,:::,,,,,*     <  ",
"         *,,,:::,,,,,*  [}||1 ",
"          **2222222**   34567 ",
"    8}90 *aa,222222bb   cdefg ",
"  c1hijk *aa,222222bb    c3<  ",
"  l9m7no *aa,,,,,,*bb         ",
"  p6q79r3s**,,,,,,*8          ",
" 8gturvwx7**,,,,,,*1hh3       ",
" 8pye}h<zrAe*aaa**B9C7s       ",
"  xDr<  <EF5s*** hGAAC1       ",
"         h9HE***   IJ}K       ",
"         [}p3      h}<        ",
"                    8         ",
"                              "};
