/* XPM */
static char * player_up_xpm[] = {
"30 30 5 1",
" 	c None",
".	c #5C4E92",
"+	c #F3F2C0",
"@	c #DDD5DE",
"#	c #766DAA",
"                              ",
"                              ",
"                              ",
"       .....      ....        ",
"      .+++++.   ..++++..      ",
"      .+++++.   ..++++..      ",
"      .+++++......++++..      ",
"      .+++++@@@@@@++++..      ",
"      .+++++@@@@@@++++..      ",
"      .+++++++++++++++..      ",
"      .+++++++++++++++..      ",
"      .+++++++++++++++..      ",
"    ...+++++++++++++++...     ",
"      .+++++++++++++++..      ",
"      .+++++++++++++++..      ",
"    ...+++++++++++++++...     ",
"      .+++++++++++++++..      ",
"      .+++++++++++++++..      ",
"       ...#########...        ",
"      .@@+###...###++@..      ",
"      .@@+###...###++@..      ",
"      .@@+++.+++..+++@..      ",
"       ...+++++++++...        ",
"       ...+++++++++...        ",
"         .@@@...@@@..         ",
"          ...   ...           ",
"          ...   ...           ",
"                              ",
"                              ",
"                              "};
