/* XPM */
static char * player_down_xpm[] = {
"30 30 63 1",
" 	c #C0D470",
".	c #BED36F",
"+	c #BDD36F",
"@	c #BFD470",
"#	c #BFD36F",
"$	c #BED370",
"%	c #5C4E92",
"&	c #BBD16E",
"*	c #B7CE6B",
"=	c #B7CF6C",
"-	c #BFD370",
";	c #F3F2C0",
">	c #B9D06D",
",	c #BAD06D",
"'	c #BDD26F",
")	c #BDD26E",
"!	c #B8CF6C",
"~	c #B6CE6C",
"{	c #E8B5AC",
"]	c #B7CE6C",
"^	c #B3CC6A",
"/	c #DDD5DE",
"(	c #F3D8C5",
"_	c #C1D471",
":	c #C0D471",
"<	c #C3D675",
"[	c #C5D779",
"}	c #C3D674",
"|	c #766DAA",
"1	c #C1D572",
"2	c #CADA80",
"3	c #D1DF8C",
"4	c #D0DE89",
"5	c #C8D97D",
"6	c #C0D46F",
"7	c #EAE178",
"8	c #C1D571",
"9	c #C7D87B",
"0	c #CCDC84",
"a	c #CADB81",
"b	c #C5D778",
"c	c #C2D573",
"d	c #C7D87A",
"e	c #C3D676",
"f	c #CBDB81",
"g	c #CADA7F",
"h	c #C4D777",
"i	c #CDDC85",
"j	c #D2DF8C",
"k	c #CEDD87",
"l	c #C6D87A",
"m	c #C7D87C",
"n	c #D1DE8B",
"o	c #C2D572",
"p	c #C4D778",
"q	c #C2D574",
"r	c #C9D97E",
"s	c #C4D676",
"t	c #CCDB83",
"u	c #C7D97C",
"v	c #C8D87C",
"w	c #CBDB82",
"x	c #BFD46F",
"                              ",
"                              ",
"          .+@          #..$   ",
"       %%%%%+     %%%%#&*=&-  ",
"   @  %;;;;;%   %%;;;;%%>,'@  ",
"   .'.%;;;;;%   %%;;;;%%--    ",
"  @)!~%{{{;;%%%%%%;{{{%%      ",
"   .]^%{{{;;//////;{{{%%      ",
"    ,]%{{{;;//////;{{{%%      ",
"    #.%;;;;;//////;;;;%%      ",
"      %;;;;;//////;;;;%%      ",
"      %;;;;;//////;;;;%%      ",
"    %%%;;;;;;;;;;;;;;;%%%     ",
"      %;;%;;;;;;;;;%%;%%      ",
"      %;;%;;;;;;;;;%%;%%      ",
"    %%%;;;;;;;;;;;;;;;%%%     ",
"      %(((;;;;;;;;;(((%%   _  ",
"      %(((;;;;;;;;;(((%%:<[[} ",
"       %%%|||||||||%%%  12345 ",
"    6<%//;|||77;|||;;/%%890ab ",
"  8}cd%//;|||77;|||;;/%% 81_  ",
"  efg5%//;;;;777;;;;;/%%      ",
"  h4i5f%%%;;;;;;;;;%%%        ",
" 6bjklm%%%;;;;;;;;;%%%1       ",
" 6hn0<c_o%///%%%///%%5p       ",
"  qrl_  _s%%%6  %%%ttu}       ",
"         c%%%6  %%%vw<x       ",
"         :<h1      c<_        ",
"                    6         ",
"                              "};
