/* XPM */
static char * player_up_xpm[] = {
"30 30 60 1",
" 	c #C0D470",
".	c #BED36F",
"+	c #BDD36F",
"@	c #BFD470",
"#	c #BFD36F",
"$	c #BED370",
"%	c #5C4E92",
"&	c #BBD16E",
"*	c #B7CE6B",
"=	c #B7CF6C",
"-	c #BFD370",
";	c #F3F2C0",
">	c #B9D06D",
",	c #BAD06D",
"'	c #BDD26F",
")	c #BDD26E",
"!	c #B8CF6C",
"~	c #B6CE6C",
"{	c #B7CE6C",
"]	c #B3CC6A",
"^	c #DDD5DE",
"/	c #C1D471",
"(	c #C0D471",
"_	c #C3D675",
":	c #C5D779",
"<	c #C3D674",
"[	c #766DAA",
"}	c #C1D572",
"|	c #CADA80",
"1	c #D1DF8C",
"2	c #D0DE89",
"3	c #C8D97D",
"4	c #C0D46F",
"5	c #C1D571",
"6	c #C7D87B",
"7	c #CCDC84",
"8	c #CADB81",
"9	c #C5D778",
"0	c #C2D573",
"a	c #C7D87A",
"b	c #C3D676",
"c	c #CBDB81",
"d	c #CADA7F",
"e	c #C4D777",
"f	c #CDDC85",
"g	c #D2DF8C",
"h	c #CEDD87",
"i	c #C6D87A",
"j	c #C7D87C",
"k	c #D1DE8B",
"l	c #C2D572",
"m	c #C4D778",
"n	c #C2D574",
"o	c #C9D97E",
"p	c #C4D676",
"q	c #CCDB83",
"r	c #C7D97C",
"s	c #C8D87C",
"t	c #CBDB82",
"u	c #BFD46F",
"                              ",
"                              ",
"          .+@          #..$   ",
"       %%%%%+     %%%%#&*=&-  ",
"   @  %;;;;;%   %%;;;;%%>,'@  ",
"   .'.%;;;;;%   %%;;;;%%--    ",
"  @)!~%;;;;;%%%%%%;;;;%%      ",
"   .{]%;;;;;^^^^^^;;;;%%      ",
"    ,{%;;;;;^^^^^^;;;;%%      ",
"    #.%;;;;;;;;;;;;;;;%%      ",
"      %;;;;;;;;;;;;;;;%%      ",
"      %;;;;;;;;;;;;;;;%%      ",
"    %%%;;;;;;;;;;;;;;;%%%     ",
"      %;;;;;;;;;;;;;;;%%      ",
"      %;;;;;;;;;;;;;;;%%      ",
"    %%%;;;;;;;;;;;;;;;%%%     ",
"      %;;;;;;;;;;;;;;;%%   /  ",
"      %;;;;;;;;;;;;;;;%%(_::< ",
"       %%%[[[[[[[[[%%%  }|123 ",
"    4_%^^;[[[%%%[[[;;^%%56789 ",
"  5<0a%^^;[[[%%%[[[;;^%% 5}/  ",
"  bcd3%^^;;;%;;;%%;;;^%%      ",
"  e2f3c%%%;;;;;;;;;%%%        ",
" 49ghij%%%;;;;;;;;;%%%}       ",
" 4ek7_0/l%^^^%%%^^^%%3m       ",
"  noi/  /p%%%4  %%%qqr<       ",
"         0%%%4  %%%st_u       ",
"         (_e}      0_/        ",
"                    4         ",
"                              "};
