/* XPM */
static char * player_left_xpm[] = {
"30 30 79 1",
" 	c #C0D470",
".	c #BED36F",
"+	c #BDD36F",
"@	c #BFD470",
"#	c #BFD36F",
"$	c #BED370",
"%	c #BAD06D",
"&	c #B7CE6C",
"*	c #5C4E92",
"=	c #BBD16E",
"-	c #B7CE6B",
";	c #B7CF6C",
">	c #BFD370",
",	c #B9CF6D",
"'	c #B5CD6B",
")	c #F3F2C0",
"!	c #BDD26E",
"~	c #B9D06D",
"{	c #BDD26F",
"]	c #BBD06E",
"^	c #B8CF6C",
"/	c #B6CE6C",
"(	c #BED26F",
"_	c #E8B5AC",
":	c #B3CC6A",
"<	c #BBD06D",
"[	c #BCD26E",
"}	c #F3D8C5",
"|	c #C1D471",
"1	c #C0D471",
"2	c #C3D675",
"3	c #C5D779",
"4	c #C3D674",
"5	c #766DAA",
"6	c #C1D572",
"7	c #CADA80",
"8	c #D1DF8C",
"9	c #D0DE89",
"0	c #C8D97D",
"a	c #C0D46F",
"b	c #CBDB81",
"c	c #C7D97B",
"d	c #EAE178",
"e	c #DDD5DE",
"f	c #C1D571",
"g	c #C7D87B",
"h	c #CCDC84",
"i	c #CADB81",
"j	c #C5D778",
"k	c #C2D573",
"l	c #C7D87A",
"m	c #D3E08D",
"n	c #CDDC83",
"o	c #C3D676",
"p	c #CADA7F",
"q	c #CEDD86",
"r	c #C9DA7E",
"s	c #C4D777",
"t	c #CDDC85",
"u	c #C6D87A",
"v	c #C4D778",
"w	c #D2DF8C",
"x	c #CEDD87",
"y	c #C7D87C",
"z	c #C4D677",
"A	c #C2D574",
"B	c #D1DE8B",
"C	c #C2D572",
"D	c #CCDB83",
"E	c #CCDC82",
"F	c #C7D97C",
"G	c #C9D97E",
"H	c #C4D676",
"I	c #CEDC86",
"J	c #C8D97C",
"K	c #CFDD88",
"L	c #C8D87C",
"M	c #CBDB82",
"N	c #BFD46F",
"                              ",
"                              ",
"          .+@          #..$   ",
"         @%&+*****    #=-;=>  ",
"   @     >,'*)))))*   >!~%{@  ",
"   .{.@  >]^*)))))*     >>    ",
"  @!^/(   ***))___)**         ",
"   .&:{ (*)))))___)**         ",
"    %&(#<*)))))___)**@        ",
"    #.@!~*)))))))))**{        ",
"       .[*)))))))))**.        ",
"         *)))))))))**         ",
"       ***)))))))))***        ",
"       **)))*))))))**         ",
"       **)))*))))))**         ",
"       **))))))))))***        ",
"       **))))}}})))**      |  ",
"       **))))}}})))**   12334 ",
"         *55555555*     67890 ",
"    a2bc d555555))e**   fghij ",
"  f4klmn d555555))e**    f6|  ",
"  obp0qr d**))))))e**         ",
"  s9t0bu6v**))))))*a          ",
" ajwxuyzA0**))))))*4kk6       ",
" asBh2k|CuDh*eee**EbF0v       ",
"  AGu|  |HI8v*** kJDDF4       ",
"         kbKH***   LM2N       ",
"         12s6      k2|        ",
"                    a         ",
"                              "};
