/* XPM */
static char * plyaer_down_attack_xpm[] = {
"30 30 43 1",
" 	c #C0D470",
".	c #BFD470",
"+	c #B2CB69",
"@	c #BCD16E",
"#	c #B9D06D",
"$	c #BED36F",
"%	c #BFD370",
"&	c #B4CC6A",
"*	c #B0CA69",
"=	c #B1CA69",
"-	c #818181",
";	c #BED26F",
">	c #AFC968",
",	c #5C4E92",
"'	c #B7B7B7",
")	c #F3F2C0",
"!	c #90625D",
"~	c #BCD26E",
"{	c #E8B5AC",
"]	c #AA7959",
"^	c #DDD5DE",
"/	c #F3D8C5",
"(	c #C1D572",
"_	c #C2D573",
":	c #766DAA",
"<	c #BFD46F",
"[	c #EAE178",
"}	c #D6E293",
"|	c #D3E08E",
"1	c #C0D46F",
"2	c #C1D571",
"3	c #DAE597",
"4	c #D0DE89",
"5	c #C7D87B",
"6	c #CEDD86",
"7	c #D6E292",
"8	c #C6D87A",
"9	c #CADA80",
"0	c #CBDB82",
"a	c #D5E191",
"b	c #C8D97D",
"c	c #BFD36E",
"d	c #D2DF8C",
"                              ",
"          ..             ..   ",
"          ..             ..   ",
"         .++.         @@+##   ",
"   $     %&&            %     ",
"   $     %&&            %     ",
"   @**                        ",
"    ==-;;>  ,,,    ,,,        ",
"   '----;> ,))),  ,))),       ",
"   '---!!~ ,{{),,,,){{,       ",
"    '--]!  ,{{)^^^^){{,       ",
"     '' ]! ,)))^^^^))),       ",
"        ]!,,)))^^^^))),       ",
"         ,^,)))))))))),,      ",
"         ,),),,)))),,),       ",
"          ,,)))))))))),,      ",
"           ,//))))))//,  ((_  ",
"            ,,::::::,,   ((_  ",
"      <      ,::[)::,   (}}|11",
"    22311    ,))[[)),    ((   ",
"    22311    ,)))))),    ((   ",
" ((4556      ,)))))),         ",
"   7889  0<< ,^^,))),         ",
"   7889  0<<  ,, ,^^,         ",
"   a__   5||      ,,b0        ",
"   1     _}}      cdd<        ",
"   1     _}}      cdd<        ",
"          ((                  ",
"                              ",
"                              "};
