/* XPM */
static char * wall_xpm[] = {
"30 30 390 2",
"  	c #93785E",
". 	c #93785D",
"+ 	c #91775E",
"@ 	c #7D6A5C",
"# 	c #756356",
"$ 	c #7F644F",
"% 	c #776859",
"& 	c #968162",
"* 	c #937B5F",
"= 	c #7F6C5A",
"- 	c #816044",
"; 	c #8B643E",
"> 	c #8C6842",
", 	c #84674B",
"' 	c #726051",
") 	c #756051",
"! 	c #866A5D",
"~ 	c #926B5A",
"{ 	c #846457",
"] 	c #725F56",
"^ 	c #786557",
"/ 	c #87705C",
"( 	c #8C765F",
"_ 	c #8C725B",
": 	c #846C59",
"< 	c #6F6159",
"[ 	c #806A57",
"} 	c #886F58",
"| 	c #816B5D",
"1 	c #8A6C5E",
"2 	c #7C6657",
"3 	c #7D5F45",
"4 	c #886543",
"5 	c #8D673F",
"6 	c #876746",
"7 	c #756354",
"8 	c #86685B",
"9 	c #806458",
"0 	c #805F4F",
"a 	c #816150",
"b 	c #725B53",
"c 	c #745D55",
"d 	c #7A6758",
"e 	c #887461",
"f 	c #8B7966",
"g 	c #89725C",
"h 	c #765E53",
"i 	c #7E6459",
"j 	c #8E6B5A",
"k 	c #8F6A59",
"l 	c #88695A",
"m 	c #7A6152",
"n 	c #7A5F49",
"o 	c #856240",
"p 	c #8D663F",
"q 	c #876849",
"r 	c #6F635C",
"s 	c #836654",
"t 	c #88664E",
"u 	c #845F48",
"v 	c #785C52",
"w 	c #84614F",
"x 	c #7F675C",
"y 	c #706058",
"z 	c #806858",
"A 	c #7F6253",
"B 	c #866B5E",
"C 	c #906D5C",
"D 	c #8C6857",
"E 	c #896859",
"F 	c #745D54",
"G 	c #855F4A",
"H 	c #866956",
"I 	c #766457",
"J 	c #7D634C",
"K 	c #746154",
"L 	c #826550",
"M 	c #88674E",
"N 	c #805D49",
"O 	c #6F5D57",
"P 	c #78665E",
"Q 	c #7E5E4E",
"R 	c #84614E",
"S 	c #846657",
"T 	c #736158",
"U 	c #70625C",
"V 	c #8C6D5E",
"W 	c #8D6959",
"X 	c #7C655A",
"Y 	c #867261",
"Z 	c #867362",
"` 	c #735C50",
" .	c #85634E",
"..	c #866856",
"+.	c #78645B",
"@.	c #745E54",
"#.	c #855E45",
"$.	c #7D5B48",
"%.	c #76645C",
"&.	c #906F5F",
"*.	c #8E7161",
"=.	c #6D5E58",
"-.	c #765649",
";.	c #835D48",
">.	c #856450",
",.	c #7E6656",
"'.	c #745E55",
").	c #746057",
"!.	c #8D755D",
"~.	c #9A7F5F",
"{.	c #998061",
"].	c #766B61",
"^.	c #715C52",
"/.	c #82614D",
"(.	c #866754",
"_.	c #795E51",
":.	c #725A51",
"<.	c #7D685F",
"[.	c #99735C",
"}.	c #9E775F",
"|.	c #756057",
"1.	c #7E5C4F",
"2.	c #795E54",
"3.	c #6F5C53",
"4.	c #7E5D4C",
"5.	c #815E4B",
"6.	c #766154",
"7.	c #937959",
"8.	c #9A7F5D",
"9.	c #917759",
"0.	c #7C6B5B",
"a.	c #876B51",
"b.	c #806650",
"c.	c #6F6058",
"d.	c #7C5C4D",
"e.	c #735C53",
"f.	c #826556",
"g.	c #936953",
"h.	c #936A54",
"i.	c #8B6C5C",
"j.	c #7F5D4B",
"k.	c #835F4C",
"l.	c #826151",
"m.	c #756058",
"n.	c #6E635F",
"o.	c #90795F",
"p.	c #8A7156",
"q.	c #7A665A",
"r.	c #806B62",
"s.	c #7A634E",
"t.	c #8D6740",
"u.	c #85664A",
"v.	c #6C625D",
"w.	c #7E6558",
"x.	c #926A53",
"y.	c #8D6652",
"z.	c #765E54",
"A.	c #785E53",
"B.	c #6E5B54",
"C.	c #7C5A48",
"D.	c #85604B",
"E.	c #866753",
"F.	c #796A5C",
"G.	c #846E58",
"H.	c #7D6659",
"I.	c #8E6B5C",
"J.	c #916F61",
"K.	c #796961",
"L.	c #78624E",
"M.	c #886342",
"N.	c #83624B",
"O.	c #726057",
"P.	c #806256",
"Q.	c #775F53",
"R.	c #856245",
"S.	c #896241",
"T.	c #75675C",
"U.	c #8B7561",
"V.	c #7A685B",
"W.	c #785B4C",
"X.	c #85614B",
"Y.	c #81614E",
"Z.	c #756259",
"`.	c #806459",
" +	c #8B6455",
".+	c #8B6454",
"++	c #7E655A",
"@+	c #826555",
"#+	c #806756",
"$+	c #745F50",
"%+	c #81614D",
"&+	c #765E51",
"*+	c #736053",
"=+	c #89613E",
"-+	c #8B633E",
";+	c #815E44",
">+	c #766A5E",
",+	c #8D7157",
"'+	c #97785B",
")+	c #856F59",
"!+	c #725E54",
"~+	c #725E57",
"{+	c #86675A",
"]+	c #8C6556",
"^+	c #876456",
"/+	c #76635B",
"(+	c #78635A",
"_+	c #7B5C49",
":+	c #896348",
"<+	c #866650",
"[+	c #746257",
"}+	c #756053",
"|+	c #875D3E",
"1+	c #865D3E",
"2+	c #7B5A44",
"3+	c #76655C",
"4+	c #8D775F",
"5+	c #73675C",
"6+	c #846A54",
"7+	c #977A5C",
"8+	c #90765B",
"9+	c #75675E",
"0+	c #7A655D",
"a+	c #83665A",
"b+	c #72635A",
"c+	c #866751",
"d+	c #87684D",
"e+	c #796152",
"f+	c #755A4B",
"g+	c #866047",
"h+	c #86644D",
"i+	c #725E53",
"j+	c #7D5942",
"k+	c #785847",
"l+	c #87735D",
"m+	c #9B8061",
"n+	c #8C7359",
"o+	c #6D635E",
"p+	c #74665D",
"q+	c #766556",
"r+	c #957B5C",
"s+	c #977F5E",
"t+	c #71655F",
"u+	c #776353",
"v+	c #886B4F",
"w+	c #88684C",
"x+	c #7F5F48",
"y+	c #7A6158",
"z+	c #816358",
"A+	c #775C4C",
"B+	c #85624B",
"C+	c #82624F",
"D+	c #6F5E56",
"E+	c #8C775E",
"F+	c #9A7D5D",
"G+	c #977959",
"H+	c #6F625D",
"I+	c #826753",
"J+	c #89694B",
"K+	c #7E634E",
"L+	c #746555",
"M+	c #776455",
"N+	c #7B6452",
"O+	c #886A4C",
"P+	c #87684B",
"Q+	c #775947",
"R+	c #8C6252",
"S+	c #885C4C",
"T+	c #886457",
"U+	c #786257",
"V+	c #72594F",
"W+	c #8B765B",
"X+	c #9C815F",
"Y+	c #97795A",
"Z+	c #806854",
"`+	c #796155",
" @	c #755C4C",
".@	c #876244",
"+@	c #896A4B",
"@@	c #886647",
"#@	c #7A5F4D",
"$@	c #715D51",
"%@	c #7E614F",
"&@	c #6E5B51",
"*@	c #7A6056",
"=@	c #725C55",
"-@	c #825749",
";@	c #875A4A",
">@	c #856154",
",@	c #74635C",
"'@	c #8C7356",
")@	c #977D5D",
"!@	c #7C6855",
"~@	c #7A6358",
"{@	c #715B52",
"]@	c #70584B",
"^@	c #845E40",
"/@	c #866045",
"(@	c #855D43",
"_@	c #7B5E4C",
":@	c #6B605C",
"<@	c #7E6256",
"[@	c #846554",
"}@	c #826657",
"|@	c #746159",
"1@	c #725F55",
"2@	c #7C5649",
"3@	c #875B4A",
"4@	c #896353",
"5@	c #7B6A5C",
"6@	c #7C6656",
"7@	c #816352",
"8@	c #87644D",
"9@	c #735D53",
"0@	c #86725E",
"a@	c #8A755F",
"b@	c #6E5D53",
"c@	c #775441",
"d@	c #7D563F",
"e@	c #6B5B54",
"f@	c #7C5E4F",
"g@	c #83624F",
"h@	c #7E5E4F",
"i@	c #746157",
"j@	c #86664A",
"k@	c #896646",
"l@	c #776050",
"m@	c #73554B",
"n@	c #7C584C",
"o@	c #796157",
"p@	c #87624D",
"q@	c #876148",
"r@	c #815D48",
"s@	c #706560",
"t@	c #937D60",
"u@	c #998060",
"v@	c #947A5D",
"w@	c #776456",
"x@	c #695852",
"y@	c #76594D",
"z@	c #7D5E4E",
"A@	c #726056",
"B@	c #76685C",
"C@	c #876A4D",
"D@	c #8B6844",
"E@	c #8B6742",
"F@	c #7C624B",
"G@	c #6C5D58",
"H@	c #7F5D4C",
"I@	c #865F47",
"J@	c #7D5A47",
"K@	c #745F57",
"L@	c #80695F",
"M@	c #72665D",
"N@	c #91775D",
"O@	c #9B8161",
"P@	c #9D8362",
"Q@	c #87765F",
"R@	c #6C5E56",
"S@	c #7B5E4F",
"T@	c #786456",
"U@	c #967F63",
"V@	c #957F63",
"W@	c #74655A",
"X@	c #7C604A",
"Y@	c #8A6743",
"Z@	c #8C6843",
"`@	c #83654B",
" #	c #75594D",
".#	c #7B645B",
"+#	c #937364",
"@#	c #7C695D",
"##	c #8B725E",
"$#	c #766B60",
"%#	c #8C765E",
"&#	c #977B5D",
"*#	c #987D5D",
"=#	c #7E6F5C",
"-#	c #73675D",
";#	c #988264",
">#	c #977F61",
",#	c #806E5B",
"'#	c #846750",
")#	c #7C6450",
"!#	c #745E4B",
"~#	c #866240",
"{#	c #755F51",
"]#	c #80655A",
"^#	c #916C5B",
"/#	c #836659",
"  . . + @ @ # $ $ % & & * = = - ; ; > , , ' ) ) ! ~ ~ { ] ] ",
"^ / / ( _ _ : < < [ } } | 1 1 2 3 3 4 5 5 6 7 7 8 9 9 0 a a ",
"^ / / ( _ _ : < < [ } } | 1 1 2 3 3 4 5 5 6 7 7 8 9 9 0 a a ",
"b c c d e e f g g h i i j k k l m m n o o p q q r s s t u u ",
"v w w x y y z A A B C C D E E F G G H I I J K K L M M N O O ",
"v w w x y y z A A B C C D E E F G G H I I J K K L M M N O O ",
"P Q Q R S S T U U V W W X Y Y Z ` `  .....+.@.@.#.$.$.%.&.&.",
"*.=.=.-.;.;.>.,.,.'.).).!.~.~.{.].].^././.(._._.:.<.<.[.}.}.",
"*.=.=.-.;.;.>.,.,.'.).).!.~.~.{.].].^././.(._._.:.<.<.[.}.}.",
"|.1.1.2.3.3.4.5.5.6.7.7.8.9.9.0.a.a.b.c.c.d.e.e.f.g.g.h.i.i.",
"] j.j.k.l.l.m.n.n.o.8.8.p.q.q.r.s.s.t.u.u.v.w.w.x.y.y.z.A.A.",
"] j.j.k.l.l.m.n.n.o.8.8.p.q.q.r.s.s.t.u.u.v.w.w.x.y.y.z.A.A.",
"A B.B.C.D.D.E.^ ^ F.G.G.H.I.I.J.K.K.L.M.M.N.O.O.P.Q.Q.R.S.S.",
"T.U.U.V.W.W.X.Y.Y.Z.`.`. +.+.+++@+@+#+$+$+%+&+&+*+=+=+-+;+;+",
"T.U.U.V.W.W.X.Y.Y.Z.`.`. +.+.+++@+@+#+$+$+%+&+&+*+=+=+-+;+;+",
">+,+,+'+)+)+!+~+~+{+]+]+^+/+/+(+_+_+:+<+<+[+}+}+|+1+1+2+3+3+",
"4+5+5+6+7+7+8+9+9+0+a+a+b+c+c+d+e+e+f+g+g+h+i+i+j+k+k+l+m+m+",
"4+5+5+6+7+7+8+9+9+0+a+a+b+c+c+d+e+e+f+g+g+h+i+i+j+k+k+l+m+m+",
"n+o+o+p+q+q+r+s+s+t+u+u+v+w+w+x+y+y+z+A+A+B+C+C+D+E+E+F+G+G+",
"H+I+I+J+K+K+L+M+M+N+O+O+P+Q+Q+'.R+R+S+T+T+U+V+V+W+X+X+Y+Z+Z+",
"H+I+I+J+K+K+L+M+M+N+O+O+P+Q+Q+'.R+R+S+T+T+U+V+V+W+X+X+Y+Z+Z+",
"`+ @ @.@+@+@@@#@#@$@%@%@&@y+y+*@=@=@-@;@;@>@,@,@'@)@)@!@~@~@",
"D.{@{@]@^@^@/@(@(@_@:@:@<@[@[@}@|@|@1@2@2@3@4@4@5@6@6@7@8@8@",
"D.{@{@]@^@^@/@(@(@_@:@:@<@[@[@}@|@|@1@2@2@3@4@4@5@6@6@7@8@8@",
"9@0@0@a@b@b@c@d@d@e@f@f@g@h@h@i@j@j@k@l@l@m@n@n@o@p@p@q@r@r@",
"s@t@t@u@v@v@w@x@x@y@R R z@A@A@B@C@C@D@E@E@F@G@G@H@I@I@J@K@K@",
"s@t@t@u@v@v@w@x@x@y@R R z@A@A@B@C@C@D@E@E@F@G@G@H@I@I@J@K@K@",
"L@M@M@N@O@O@P@Q@Q@R@S@S@T@U@U@V@W@W@X@Y@Y@Z@`@`@!+ # #.#+#+#",
"@#####$#%#%#&#*#*#=#-#-#;#>#>#,#'#'#)#!#!#~#; ; {#]#]#^#/#/#",
"@#####$#%#%#&#*#*#=#-#-#;#>#>#,#'#'#)#!#!#~#; ; {#]#]#^#/#/#"};
